<?xml version="1.0" encoding="UTF-8" standalone="no"?>
<!-- Created with Inkscape (http://www.inkscape.org/) -->

<svg
   width="97.898376mm"
   height="67.807007mm"
   viewBox="0 0 97.898376 67.807007"
   version="1.1"
   id="svg1"
   xml:space="preserve"
   inkscape:version="1.4.2 (ebf0e940, 2025-05-08)"
   sodipodi:docname="logofull.svg"
   xmlns:inkscape="http://www.inkscape.org/namespaces/inkscape"
   xmlns:sodipodi="http://sodipodi.sourceforge.net/DTD/sodipodi-0.dtd"
   xmlns="http://www.w3.org/2000/svg"
   xmlns:svg="http://www.w3.org/2000/svg"><sodipodi:namedview
     id="namedview1"
     pagecolor="#ffffff"
     bordercolor="#000000"
     borderopacity="0.25"
     inkscape:showpageshadow="2"
     inkscape:pageopacity="0.0"
     inkscape:pagecheckerboard="0"
     inkscape:deskcolor="#d1d1d1"
     inkscape:document-units="mm"
     inkscape:export-bgcolor="#ffffff00"
     inkscape:zoom="0.52410024"
     inkscape:cx="273.80258"
     inkscape:cy="548.55918"
     inkscape:window-width="1512"
     inkscape:window-height="804"
     inkscape:window-x="132"
     inkscape:window-y="948"
     inkscape:window-maximized="0"
     inkscape:current-layer="layer1"><inkscape:page
       x="0"
       y="0"
       width="97.898376"
       height="67.807007"
       id="page2"
       margin="0"
       bleed="0" /></sodipodi:namedview><defs
     id="defs1" /><g
     inkscape:label="Capa 1"
     inkscape:groupmode="layer"
     id="layer1"
     transform="translate(-70.858971,-144.68689)"><path
       style="fill:#ffffff"
       d="m 117.49218,212.38734 c -11.98564,-1.03108 -22.297149,-7.75388 -27.778857,-18.11098 -0.711282,-1.3439 -0.72559,-1.4083 -0.35078,-1.57908 0.442304,-0.20152 0.692708,0.0317 1.346098,1.25379 1.290478,2.41367 3.203469,5.03185 5.439032,7.44403 2.64627,2.85533 7.000727,5.76182 11.299297,7.542 15.58643,6.45485 33.98392,-0.32391 41.73608,-15.37813 0.45012,-0.8741 0.7616,-1.09043 1.21821,-0.84606 0.36594,0.19584 -0.002,1.03094 -1.60075,3.63578 -6.44104,10.49269 -19.28598,17.0729 -31.30833,16.03865 z M 97.721173,194.24151 c -0.30871,-0.34996 -0.40842,-1.23192 -0.83851,-7.41634 -0.15686,-2.25555 -0.3875,-5.45192 -0.51254,-7.10302 -0.12504,-1.65111 -0.3103,-4.17107 -0.41168,-5.59992 -0.295225,-4.16086 -0.389533,-4.46926 -0.617894,-2.02059 -0.82324,8.82744 -0.743395,8.37101 -1.464366,8.37101 -0.417791,0 -0.404652,-0.0342 -0.577439,1.50101 -0.542159,4.81691 -0.879077,6.01275 -1.601321,5.68368 -0.372315,-0.16964 -0.468432,-0.52583 -0.817122,-3.02805 -0.163715,-1.17483 -0.39686,-2.78553 -0.518102,-3.57933 -0.121241,-0.7938 -0.255664,-1.74272 -0.298718,-2.10871 -0.162277,-1.37947 -0.26105,-1.13217 -0.749992,1.87779 -0.388798,2.39346 -0.521542,2.77109 -0.974099,2.77109 -0.366486,0 -0.470334,-0.21382 -0.706876,-1.45543 -0.350829,-1.84151 -0.308172,-1.96643 -1.140094,3.3385 -0.262188,1.67189 -0.499944,2.15243 -1.066885,2.15633 -0.443125,0.003 -0.735629,-0.97187 -1.073364,-3.57755 -0.321059,-2.47703 -0.702766,-5.07268 -0.821604,-5.58701 -0.157676,-0.68242 -0.234944,-0.57752 -0.500795,0.67987 -0.31802,1.50412 -0.387151,1.66274 -0.799824,1.83516 -0.348335,0.14555 -0.390882,0.2277 -0.641499,1.23868 -0.616644,2.48752 -1.263382,2.70072 -2.058757,0.67868 -0.254704,-0.64752 -0.420525,-0.90553 -0.657344,-1.02278 -0.214744,-0.10633 -0.425149,-0.39596 -0.653509,-0.8996 -0.370607,-0.81736 -0.450473,-0.82916 -0.806702,-0.11924 -0.527326,1.05089 -0.360035,1.00246 -3.462764,1.00246 -2.698059,0 -2.747428,-0.004 -2.922631,-0.25444 -0.445422,-0.63593 -0.152114,-0.72057 2.719204,-0.78472 l 2.58398,-0.0577 0.346387,-0.65191 c 0.822563,-1.54808 1.414337,-1.54779 2.1896,0.001 0.183907,0.36741 0.406534,0.64448 0.547459,0.68133 0.154061,0.0403 0.354298,0.31968 0.569904,0.79519 0.403726,0.8904 0.496896,0.90777 0.680565,0.1269 0.247787,-1.05346 0.448901,-1.44646 0.803481,-1.57007 0.294661,-0.10272 0.346197,-0.20366 0.519915,-1.01834 0.731273,-3.42944 0.893595,-3.93753 1.289687,-4.03695 0.733386,-0.18407 0.839114,0.23229 1.894985,7.46246 0.329729,2.25785 0.425748,2.44817 0.611658,1.21236 0.699012,-4.64659 0.93478,-5.64384 1.366714,-5.78093 0.376843,-0.11961 0.644488,0.25964 0.850246,1.20479 0.105528,0.48474 0.234741,0.92783 0.28714,0.98465 0.110972,0.12032 0.102921,0.15542 0.560023,-2.44167 0.401283,-2.27994 0.567607,-2.71607 1.015355,-2.6624 0.639849,0.0767 0.874935,0.94253 1.357768,5.00077 0.160989,1.35313 0.443956,3.24371 0.594387,3.97128 0.105613,0.5108 0.243606,0.0789 0.383455,-1.20019 0.325167,-2.97402 0.492738,-3.56672 1.039296,-3.67603 0.454791,-0.091 0.373348,0.43026 1.049338,-6.71556 0.641178,-6.77784 0.847306,-7.72253 1.584605,-7.26226 0.436839,0.2727 0.511379,0.81725 0.954569,6.9736 0.13029,1.80987 0.33717,4.64158 0.45974,6.29269 0.12257,1.65111 0.27786,3.91128 0.34509,5.0226 0.0672,1.11132 0.17162,2.59213 0.23196,3.29067 0.0603,0.69855 0.14202,1.67821 0.18149,2.17702 0.10005,1.26433 0.23143,0.97845 0.39027,-0.8492 0.19726,-2.26976 0.79245,-8.1414 0.99323,-9.79828 0.18775,-1.54946 0.27349,-1.80825 0.637307,-1.92372 0.56301,-0.17869 0.78463,0.45937 1.26096,3.63046 0.33197,2.21001 0.32088,2.23139 0.74389,-1.43409 0.56881,-4.92887 0.68549,-5.65037 0.99647,-6.16173 0.3635,-0.59773 0.90788,-0.38798 1.14576,0.44146 0.13026,0.45421 1.27148,11.49827 1.27148,12.30469 0,0.38593 0.219,-0.22535 0.27939,-0.77986 0.35453,-3.25513 1.01531,-8.09787 1.16251,-8.51972 0.49413,-1.41619 1.26367,-0.97935 1.60686,0.91214 0.15264,0.84129 0.99242,6.56135 0.99242,6.75976 0,0.0362 0.0438,0.0659 0.0974,0.0659 0.0931,0 0.17968,-0.3754 0.71884,-3.11747 0.5678,-2.8877 1.65152,-3.31615 2.41915,-0.95642 0.40338,1.24001 0.46437,1.3028 1.26535,1.3028 0.65577,0 0.69904,0.0184 1.00763,0.42889 1.68471,2.24088 2.16688,1.92366 4.07418,-2.6804 1.80558,-4.35853 3.05538,-5.8936 4.62677,-5.68283 1.64787,0.22103 2.7234,2.04687 5.18391,8.80031 3.31285,9.09288 4.49688,8.90647 8.06713,-1.27009 2.05335,-5.85281 2.96373,-7.32825 4.64449,-7.52732 1.59901,-0.18937 3.19046,1.97704 4.55417,6.19951 2.79675,8.65959 4.11662,9.33095 6.58278,3.3484 2.14955,-5.21451 2.74001,-6.26149 3.90958,-6.93229 1.58879,-0.91125 2.78033,-0.27226 4.77024,2.55815 1.66036,2.36167 2.25435,2.68325 5.05893,2.73886 2.04566,0.0406 2.25151,0.0907 2.25151,0.54847 0,0.42399 -0.33429,0.5095 -1.99179,0.5095 -3.2814,0 -4.37479,-0.59387 -6.30383,-3.42387 -2.54933,-3.74001 -3.64129,-3.17771 -6.26653,3.2269 -1.9101,4.65995 -2.96353,5.98607 -4.52279,5.69355 -1.46174,-0.27422 -2.25743,-1.62782 -4.18133,-7.11305 -3.02651,-8.62892 -4.24313,-8.5818 -7.45304,0.28866 -2.65135,7.32691 -3.64438,8.89554 -5.49901,8.6865 -1.62042,-0.18265 -2.57275,-1.7229 -4.83542,-7.82054 -3.53397,-9.52361 -4.6962,-9.82185 -7.84432,-2.01293 -1.82749,4.53308 -3.43887,5.46428 -5.15055,2.97645 -0.34489,-0.50129 -0.3457,-0.50167 -1.06442,-0.50167 -0.94904,0 -1.13017,-0.14724 -1.51987,-1.23546 -0.54403,-1.51918 -0.54051,-1.52442 -1.14129,1.69731 -0.64552,3.46162 -0.81104,3.92571 -1.40016,3.92571 -0.64464,0 -0.74675,-0.34231 -1.33701,-4.48245 -0.48842,-3.42574 -0.59543,-3.95142 -0.72065,-3.54027 -0.0743,0.2438 -0.37849,2.67593 -0.77246,6.17533 -0.42892,3.80979 -0.67772,4.73395 -1.2745,4.73395 -0.53559,0 -0.72084,-0.78962 -1.03903,-4.42882 -0.54562,-6.24025 -0.86534,-9.17151 -0.98708,-9.04978 -0.0441,0.0441 -0.55779,4.03192 -0.68023,5.28078 -0.33679,3.43531 -0.63387,4.73395 -1.08296,4.73395 -0.51027,0 -0.66151,-0.55522 -1.17159,-4.30096 -0.11908,-0.87443 -0.34465,-1.40296 -0.34465,-0.80753 0,0.11152 -0.077,0.86127 -0.17118,1.66612 -0.0942,0.80484 -0.252677,2.36326 -0.352297,3.46315 -0.72917,8.05122 -1.06323,9.53287 -1.92821,8.55229 z M 87.547992,168.63952 c -0.623562,-0.62356 2.403481,-6.91464 4.945348,-10.27787 16.29274,-21.55749 49.95926,-16.78637 59.28044,8.40104 0.69057,1.86604 0.65654,1.65164 0.29931,1.88571 -0.30948,0.20278 -0.86597,-0.004 -0.86597,-0.3215 0,-0.75487 -2.30757,-5.60275 -3.60166,-7.56657 -15.02049,-22.79416 -49.331507,-18.92354 -58.808512,6.63418 -0.506817,1.36679 -0.817489,1.67648 -1.248956,1.24501 z"
       id="path1"
       inkscape:export-filename="logon&amp;wblack.svg"
       inkscape:export-xdpi="96"
       inkscape:export-ydpi="96"
       sodipodi:nodetypes="sssssssscsssssssssssssssscsssssssssscscsssssssssssssssssscssssssssssssssssssssssscsssssssssssssssssssssssssscssssssssscssssssscss" /></g></svg>
